HIERARCHY
ROOT Hips
{
 OFFSET 0.000000 0.000000 0.000000
 CHANNELS 6 Xposition Yposition Zposition Yrotation Xrotation Zrotation
 JOINT Chest
 {
  OFFSET 0.000000 11.395451 -0.039534
  CHANNELS 3 Yrotation Xrotation Zrotation
  JOINT Chest2
  {
   OFFSET 0.000000 9.398669 0.071813
   CHANNELS 3 Yrotation Xrotation Zrotation
   JOINT Chest3
   {
    OFFSET 0.000000 8.489801 0.000000
    CHANNELS 3 Yrotation Xrotation Zrotation
    JOINT Chest4
    {
     OFFSET 0.000000 8.489801 0.000000
     CHANNELS 3 Yrotation Xrotation Zrotation
     JOINT Neck
     {
      OFFSET 0.000000 12.404889 0.000000
      CHANNELS 3 Yrotation Xrotation Zrotation
      JOINT Head
      {
       OFFSET 0.000000 8.903270 0.092239
       CHANNELS 3 Yrotation Xrotation Zrotation
       End Site
       {
        OFFSET 0.000000 17.592497 0.007158
       }
      }
     }
     JOINT RightCollar
     {
      OFFSET -3.196775 6.966722 0.000000
      CHANNELS 3 Yrotation Xrotation Zrotation
      JOINT RightShoulder
      {
       OFFSET -15.955896 0.000000 0.000000
       CHANNELS 3 Yrotation Xrotation Zrotation
       JOINT RightElbow
       {
        OFFSET -24.792472 0.000000 0.000000
        CHANNELS 3 Yrotation Xrotation Zrotation
        JOINT RightWrist
        {
         OFFSET -20.900115 0.000000 0.025002
         CHANNELS 3 Yrotation Xrotation Zrotation
         End Site
         {
          OFFSET -16.056692 0.000000 0.000000
         }
        }
       }
      }
     }
     JOINT LeftCollar
     {
      OFFSET 3.196775 6.966722 0.000000
      CHANNELS 3 Yrotation Xrotation Zrotation
      JOINT LeftShoulder
      {
       OFFSET 15.955896 0.000000 0.000000
       CHANNELS 3 Yrotation Xrotation Zrotation
       JOINT LeftElbow
       {
        OFFSET 24.792472 0.000000 0.000000
        CHANNELS 3 Yrotation Xrotation Zrotation
        JOINT LeftWrist
        {
         OFFSET 20.900115 0.000000 0.025002
         CHANNELS 3 Yrotation Xrotation Zrotation
         End Site
         {
          OFFSET 16.056692 0.000000 0.000000
         }
        }
       }
      }
     }
    }
   }
  }
 }
 JOINT RightHip
 {
  OFFSET -9.568995 0.193718 0.019767
  CHANNELS 3 Yrotation Xrotation Zrotation
  JOINT RightKnee
  {
   OFFSET 0.000000 -56.649296 0.015402
   CHANNELS 3 Yrotation Xrotation Zrotation
   JOINT RightAnkle
   {
    OFFSET 0.000000 -41.365147 0.021264
    CHANNELS 3 Yrotation Xrotation Zrotation
    JOINT RightToe
    {
     OFFSET 0.000000 -7.465940 17.672538
     CHANNELS 3 Yrotation Xrotation Zrotation
     End Site
     {
      OFFSET 0.000000 -1.736315 7.837145
     }
    }
   }
  }
 }
 JOINT LeftHip
 {
  OFFSET 9.568995 0.193718 0.019767
  CHANNELS 3 Yrotation Xrotation Zrotation
  JOINT LeftKnee
  {
   OFFSET 0.000000 -56.649296 0.015402
   CHANNELS 3 Yrotation Xrotation Zrotation
   JOINT LeftAnkle
   {
    OFFSET 0.000000 -41.365147 0.021264
    CHANNELS 3 Yrotation Xrotation Zrotation
    JOINT LeftToe
    {
     OFFSET 0.000000 -7.465940 17.672538
     CHANNELS 3 Yrotation Xrotation Zrotation
     End Site
     {
      OFFSET 0.000000 -1.736315 7.837145
     }
    }
   }
  }
 }
}
MOTION
Frames: 15
Frame Time: 0.016667
-51.661304 104.383795 222.848736 -25.881599 3.301342 -3.152321 2.849485 4.602879 2.596177 1.239608 2.061620 1.124608 1.239610 2.061630 1.124617 0.925815 1.548522 0.839199 -0.905603 12.228843 -0.063243 -1.702426 -13.470507 0.263869 3.526622 3.401909 6.090897 13.139317 -24.527655 46.852117 42.379312 -37.663491 28.655600 -13.982568 -17.747066 11.004739 5.372783 2.754278 -7.116874 10.284548 -13.162851 -53.367445 -36.071981 -54.928569 -51.450173 20.078826 -12.664404 0.686376 0.330130 -1.490778 1.349242 -8.793048 27.962401 -1.022951 -2.819150 -16.345215 8.385281 0.453045 -12.984142 -3.957613 9.324930 -20.187919 -3.792642 3.467604 2.301812 0.775515 4.303641 1.313100 2.346538 0.000000 -0.000000 -0.000000
-52.269951 104.278492 224.410692 -26.045018 2.806267 -3.195115 3.038759 4.647353 2.370573 1.325642 2.080945 1.022222 1.325642 2.080945 1.022222 0.990643 1.562939 0.762071 -0.955028 12.338010 0.096480 -1.862991 -13.264656 0.587889 3.405377 3.362323 6.244720 12.356658 -24.308888 47.571243 42.065932 -37.307257 29.057004 -13.853049 -17.696959 11.008013 5.352846 2.424076 -7.109465 10.329130 -12.933654 -53.011355 -35.846580 -54.732743 -51.585208 20.277060 -12.570939 0.788722 0.634642 -1.470841 0.919254 -9.170014 30.687732 -1.152521 -2.091631 -15.234523 9.507124 0.689297 -16.307868 -4.808018 9.549284 -19.336392 -3.983412 0.644167 2.584300 1.218165 7.278500 3.505313 2.986027 0.000000 -0.000000 0.000000
-52.822866 104.261219 225.987733 -26.132891 2.313036 -3.003031 3.117943 4.756762 2.014697 1.363834 2.127567 0.862614 1.363839 2.127569 0.862612 1.019768 1.597622 0.642138 -0.947770 12.390445 0.260987 -1.917728 -13.164406 0.897612 3.394496 3.544869 6.357075 11.470169 -24.444568 48.379241 41.598023 -36.864481 29.550616 -13.635567 -17.602048 10.982307 5.162912 2.426421 -6.989179 10.867058 -13.074958 -53.018645 -35.783660 -54.374654 -51.596077 20.439930 -12.424557 0.859957 0.932200 -1.825010 0.107227 -10.023622 33.943514 -1.445335 -0.849978 -12.759728 10.640235 1.124081 -21.654397 -5.761162 11.665122 -18.681964 -4.480369 -1.969206 4.192132 0.736087 8.262036 4.037945 2.958405 -0.000000 -0.000000 0.000000
-53.324069 104.302132 227.568546 -26.191019 1.830012 -2.657544 3.143605 4.903987 1.576736 1.379151 2.190158 0.666843 1.379158 2.190164 0.666843 1.031862 1.644149 0.495132 -0.916907 12.405467 0.412540 -1.922464 -13.134030 1.173285 3.435136 3.851810 6.424783 10.510246 -24.742180 49.252792 41.097520 -36.384129 30.061931 -13.370214 -17.493927 10.943963 4.873068 2.620872 -6.807590 11.616359 -13.425926 -53.224113 -35.844115 -53.949959 -51.497888 20.590815 -12.260206 0.912981 1.132566 -2.506277 -0.960025 -11.099332 37.651864 -1.953685 0.777833 -9.426680 11.736619 1.741273 -27.991341 -6.766198 14.771620 -18.049339 -5.137897 -4.482433 6.366428 -0.177436 8.280513 3.713540 2.493007 -0.000000 0.000000 -0.000000
-53.752442 104.353094 229.064911 -26.195869 1.456095 -2.298480 3.168041 5.046959 1.171251 1.393858 2.251036 0.485541 1.393858 2.251036 0.485541 1.043470 1.689396 0.358975 -0.914904 12.390999 0.479595 -1.947252 -13.159520 1.300650 3.439538 4.147260 6.384427 9.685755 -24.966641 50.042914 40.822021 -36.002177 30.395775 -13.161153 -17.441727 10.913890 4.558695 2.896889 -6.640465 12.027963 -13.797847 -53.386784 -36.055788 -53.709862 -51.208694 20.744806 -12.170391 0.947197 1.171399 -3.573974 -2.024822 -12.080223 41.587986 -2.703857 2.294996 -6.085371 12.565164 2.147217 -32.768729 -7.293963 16.462994 -17.513178 -5.558597 -5.348182 8.322098 -0.678639 7.891706 3.152504 2.094618 0.000000 0.000000 0.000000
-54.060978 104.397715 230.419831 -26.091308 1.276604 -1.948788 3.194258 5.164313 0.826391 1.408973 2.300885 0.331312 1.408970 2.300881 0.331310 1.055336 1.726432 0.243142 -0.970412 12.332875 0.427745 -2.032495 -13.267456 1.226518 3.378686 4.434783 6.144136 8.971135 -25.108152 50.792389 40.924777 -35.738275 30.489919 -13.070287 -17.469922 10.899519 4.215475 3.295451 -6.503835 11.830006 -14.147499 -53.429130 -36.578859 -53.828543 -50.549721 20.945070 -12.207799 0.956764 1.107905 -5.203372 -3.089762 -13.125909 45.894075 -3.820757 3.595895 -2.633249 13.109089 2.043598 -35.364681 -6.990268 15.076470 -17.271476 -5.557159 -2.783514 9.793533 -0.244241 6.932373 2.511217 1.907574 0.000000 0.000000 0.000000
-54.296684 104.452385 231.690303 -25.931025 1.204846 -1.586139 3.216614 5.278774 0.514079 1.422185 2.349634 0.191600 1.422185 2.349634 0.191600 1.065754 1.762684 0.138210 -1.055313 12.246043 0.291354 -2.138529 -13.429961 1.004116 3.276759 4.712607 5.796199 8.401540 -25.187506 51.452118 41.240642 -35.580797 30.419106 -13.036638 -17.552714 10.893240 3.849677 3.773838 -6.379977 11.292110 -14.513186 -53.411759 -37.265043 -54.125193 -49.688608 21.148981 -12.319903 0.945465 0.908748 -7.225884 -4.153059 -14.205402 50.410212 -5.292374 4.716520 0.838733 13.405581 1.588430 -36.388691 -6.054321 12.302499 -17.176625 -5.399992 1.513230 11.017189 0.629432 5.588203 1.620966 1.818689 0.000000 0.000000 0.000000
-54.579474 104.518140 232.959096 -25.854838 1.082774 -1.282583 3.274905 5.414607 0.265448 1.450739 2.408321 0.079588 1.450739 2.408321 0.079588 1.087580 1.806441 0.053963 -1.135989 12.182130 0.101967 -2.213357 -13.551131 0.678101 3.124476 4.837300 5.552654 8.289620 -25.037336 51.712200 41.540696 -35.624315 30.204218 -12.980387 -17.682956 10.892249 3.545200 4.091349 -6.292054 10.678301 -14.827326 -53.298559 -37.660098 -54.327088 -49.083156 21.242968 -12.441609 0.927494 0.327811 -9.198624 -4.928407 -14.542006 54.472269 -6.682833 5.259163 3.207307 13.345545 0.967300 -35.149794 -4.766388 10.788579 -16.846794 -5.440859 3.903054 12.053207 1.193165 4.957851 0.622500 1.886416 0.000000 -0.000000 0.000000
-54.982166 104.595524 234.273186 -26.001520 0.829329 -1.065005 3.438854 5.602779 0.091629 1.525395 2.490764 -0.000898 1.525392 2.490764 -0.000899 1.143862 1.868082 -0.006895 -1.215219 12.146533 -0.162796 -2.252659 -13.621106 0.206774 2.868006 4.677356 5.531346 8.984099 -24.458512 51.317679 41.797312 -36.003936 29.735680 -12.860368 -17.890870 10.895314 3.318034 4.081373 -6.253367 10.019947 -15.031516 -52.978211 -37.471577 -54.350215 -49.023711 21.143855 -12.562686 0.899942 -0.903276 -10.972629 -5.242544 -13.122087 57.968752 -7.319955 4.757708 3.855863 12.850628 0.329594 -30.592359 -3.228427 12.119534 -16.027731 -5.911420 2.009793 12.987884 1.007519 5.904655 -0.525593 2.162561 0.000000 -0.000000 -0.000000
-55.431940 104.683993 235.585597 -26.232660 0.527224 -0.905103 3.639271 5.811498 -0.017930 1.615539 2.582710 -0.053596 1.615536 2.582714 -0.053597 1.211669 1.936910 -0.047023 -1.290257 12.133959 -0.480526 -2.260777 -13.648797 -0.368104 2.561352 4.363775 5.614982 10.116456 -23.646276 50.543088 42.041055 -36.582307 29.118882 -12.717603 -18.146349 10.902753 3.147297 3.908192 -6.250513 9.287037 -15.179290 -52.570807 -36.977564 -54.286095 -49.236051 20.934029 -12.692250 0.867209 -2.572747 -12.699375 -5.214410 -10.527263 61.047931 -7.353788 3.612012 3.408956 12.055596 -0.047313 -23.762479 -1.677216 14.680521 -14.935853 -6.504722 -1.833488 13.760356 0.496610 7.561340 -1.771139 2.527515 0.000000 -0.000000 -0.000000
-55.830254 104.782956 236.838172 -26.273062 0.264111 -0.794532 3.708696 5.969954 -0.065551 1.646850 2.652732 -0.076866 1.646850 2.652732 -0.076866 1.235251 1.989359 -0.064792 -1.317990 12.178761 -0.752560 -2.197424 -13.568947 -0.876648 2.360987 4.145083 5.660656 10.943521 -23.043930 49.839385 42.123292 -37.049056 28.707775 -12.595644 -18.352381 10.914143 3.060219 3.826990 -6.267422 8.654042 -15.377721 -52.396740 -36.558734 -54.134637 -49.350135 20.748611 -12.794967 0.854882 -4.225347 -14.389624 -5.006470 -8.469362 63.448001 -7.685446 2.716300 2.610524 11.148126 -0.066214 -17.162033 -0.398834 16.349008 -13.934612 -6.844533 -4.214486 14.332998 0.194426 8.423321 -2.822398 2.804299 -0.000000 0.000000 -0.000000
-56.107753 104.894208 237.989962 -25.988948 0.080072 -0.729160 3.549067 6.044488 -0.035845 1.575573 2.686098 -0.062187 1.575576 2.686098 -0.062183 1.181741 2.014432 -0.053557 -1.270531 12.313367 -0.957999 -2.019056 -13.321143 -1.290404 2.368810 4.129403 5.601447 11.225466 -22.870410 49.280812 41.906597 -37.314995 28.684709 -12.512261 -18.470128 10.924242 3.094711 3.964737 -6.311231 8.241583 -15.722792 -52.666032 -36.353316 -53.853596 -49.220235 20.651605 -12.849721 0.885752 -5.909831 -16.104644 -4.622819 -8.096363 65.038008 -9.372896 2.538343 1.543083 10.077956 0.216197 -11.185488 0.853080 16.111114 -13.220750 -6.809121 -3.149566 14.672819 0.377532 7.454848 -3.516916 2.980226 -0.000000 0.000000 0.000000
-56.333791 105.015954 239.081916 -25.513300 -0.065740 -0.715540 3.258404 6.067989 0.054109 1.445380 2.697217 -0.018640 1.445382 2.697223 -0.018634 1.083920 2.022894 -0.020353 -1.175902 12.504780 -1.117858 -1.771308 -12.966629 -1.636346 2.483516 4.208157 5.503148 11.219908 -22.919338 48.769270 41.522016 -37.468491 28.876184 -12.449836 -18.538567 10.938919 3.212326 4.194463 -6.375068 7.933875 -16.128445 -53.168604 -36.218930 -53.485875 -48.992319 20.579654 -12.878431 0.936423 -7.595271 -17.769931 -4.073455 -8.490995 65.928331 -11.634803 2.652357 0.118049 8.877521 0.717880 -5.479726 2.076507 15.010263 -12.619985 -6.593684 -0.613102 14.820800 0.740233 5.686550 -4.019560 3.128090 -0.000000 0.000000 -0.000000
-56.617895 105.142217 240.178726 -24.970897 -0.207279 -0.763184 2.963425 6.069753 0.152808 1.313174 2.698604 0.029004 1.313174 2.698604 0.029004 0.984570 2.024026 0.015947 -1.073312 12.688639 -1.195886 -1.544031 -12.625037 -1.828404 2.558073 4.303724 5.420199 10.952821 -23.017427 48.463857 41.219632 -37.470890 29.107355 -12.399243 -18.577591 10.975128 3.327511 4.390241 -6.421283 7.547493 -16.432200 -53.590466 -36.115329 -53.160008 -48.732038 20.477309 -12.910800 0.961996 -8.671155 -19.212835 -3.587246 -8.457330 66.261020 -12.818444 2.593500 -1.160349 7.804896 1.079928 -1.399480 2.712737 14.036827 -11.977658 -6.369175 0.882896 14.914052 0.943778 4.716301 -4.535671 3.216274 0.000000 0.000000 0.000000
-57.028099 105.278502 241.309425 -24.380300 -0.363935 -0.913631 2.708836 6.051099 0.256162 1.198858 2.690816 0.078308 1.198859 2.690802 0.078303 0.898634 2.018256 0.053433 -0.972025 12.855003 -1.156742 -1.368600 -12.315486 -1.796214 2.529592 4.405664 5.374793 10.285338 -23.154695 48.517872 41.102057 -37.239350 29.346775 -12.381441 -18.572621 11.051574 3.411462 4.496786 -6.425835 6.999501 -16.539670 -53.837338 -36.044235 -52.918629 -48.435890 20.322350 -12.955835 0.949302 -8.738234 -20.349473 -3.272587 -7.583628 66.090447 -12.147934 2.074928 -2.079580 6.896530 0.885663 0.164184 2.177728 13.548375 -11.233044 -6.167340 -0.102634 15.023298 0.828231 5.621028 -5.154911 3.143899 0.000000 0.000000 0.000000
